<svg id="Layer_1" data-name="Layer 1" xmlns="http://www.w3.org/2000/svg" viewBox="0 0 512 512"><defs><style>.cls-1{fill:#d84169;}.cls-2{opacity:0.2;}.cls-3{fill:#fff;}.cls-4{opacity:0.08;}</style></defs><title>blood-drops-flat</title><path class="cls-1" d="M512,182.16c0,50.11-35.63,92.16-83.14,102.26a105.51,105.51,0,0,1-45.16-.19c-47-10.42-82.25-52.21-82.25-102.07,0-70.31,92-172.45,95.85-176.7a11.28,11.28,0,0,1,4.07-2.86,13.34,13.34,0,0,1,10.48-.13,11.26,11.26,0,0,1,4.32,3C420,9.71,512,111.85,512,182.16Z"/><g class="cls-2"><path class="cls-3" d="M401.36,2.6a11.28,11.28,0,0,0-4.07,2.86c-3.87,4.26-95.85,106.39-95.85,176.7,0,49.86,35.25,91.65,82.25,102.07a127.65,127.65,0,0,1-38.11-91C345.59,150.85,372.77,72.66,401.36,2.6Z"/></g><g class="cls-4"><path d="M416.15,5.46a11.26,11.26,0,0,0-4.32-3C440.35,72.4,467.6,150.72,467.6,193.08a127.11,127.11,0,0,1-38.74,91.34C476.37,274.32,512,232.27,512,182.16,512,111.85,420,9.71,416.15,5.46Z"/></g><path class="cls-1" d="M295.31,363.82c0,70.29-50,129.26-116.61,143.42a148,148,0,0,1-63.34-.27C49.44,492.36,0,433.75,0,363.82,0,265.2,129,122,134.43,116a15.82,15.82,0,0,1,5.7-4,18.72,18.72,0,0,1,14.7-.18,15.79,15.79,0,0,1,6.06,4.19C166.32,122,295.31,265.2,295.31,363.82Z"/><g class="cls-2"><path class="cls-3" d="M140.13,112a15.82,15.82,0,0,0-5.7,4C129,122,0,265.2,0,363.82,0,433.75,49.44,492.36,115.36,507A179,179,0,0,1,61.91,379.41C61.91,319.9,100,210.24,140.13,112Z"/></g><g class="cls-4"><path d="M160.88,116a15.79,15.79,0,0,0-6.06-4.19c40,98.08,78.21,207.92,78.21,267.34a178.27,178.27,0,0,1-54.34,128.1c66.63-14.16,116.61-73.14,116.61-143.42C295.31,265.2,166.32,122,160.88,116Z"/></g></svg>