<svg id="Layer_1" data-name="Layer 1" xmlns="http://www.w3.org/2000/svg" viewBox="0 0 512 512"><defs><style>.cls-1{fill:#727272;}</style></defs><title>blood-drops-handdrawn</title><path class="cls-1" d="M282.06,379.48A138.13,138.13,0,0,1,263.43,435a135.84,135.84,0,0,1-83.36,62.38c-24.59,6.43-50.86,5.09-74.87-2.54a146.78,146.78,0,0,1-33.81-16.72A150.58,150.58,0,0,1,43.6,452.68a132.72,132.72,0,0,1-27-57.5c-1.69-10.5-2.75-21.23-2-31.77A157,157,0,0,1,20.45,332c6.08-20.69,15.12-40.61,25.29-60s21.74-38.13,33.91-56.59c2.66-4.12,6-8.53,8.89-12.45q14.65-19.34,30.19-38.35l15.76-18.88,8-9.33,2.49-2.81.5-.51,13.69,16.37q9.29,11.31,18.29,22.91c12,15.47,23.54,31.28,34.42,47.5,21.62,32.39,41.26,66.52,52.79,102.45l2.27,7.19c4,12.79,6.38,23.67,8.08,30.87,1.35,7.17,2.78,10.74,4.05,8.44,2.43-4.31,4.49-16.52,1.77-34-2.52-17.46-9.75-39.7-21.59-63.48a495,495,0,0,0-27.62-48.06c-12-18.67-24.88-36.75-38.31-54.36q-10.06-13.22-20.59-26.06L162.12,130.1l-5.9-6.85-10.7-12-9,10L130.69,128l-9,10.65q-8.87,10.71-17.42,21.67-17.13,21.9-32.92,44.84c-20.83,30.7-40.29,62.67-54.33,97.71l0,0c-8.6,21.65-15.35,44.94-14.91,69.46.71,24,6.89,48.24,19.47,68.89,24.06,42,70.9,69.58,119.2,70.69a142.62,142.62,0,0,0,111-46.31,129.22,129.22,0,0,0,27.07-44.88c1.17-3.89,2.7-7.58,3.42-11.42l2.27-11.22c.69-7.46,1.56-14.56,1-21.46C285.14,366.28,283.19,367.18,282.06,379.48Z"/><path class="cls-1" d="M509.65,187.79c-.52-7.31-2.46-6.62-3.4,1.93a98,98,0,0,1-13.48,38.41,93.31,93.31,0,0,1-109.31,40.68,101.42,101.42,0,0,1-23.14-11.57,104.33,104.33,0,0,1-19-17.5A90.4,90.4,0,0,1,323,200.35c-2.67-14.46-1.21-29,2.81-43.2,4.38-14.16,10.6-27.85,17.52-41.27,7.25-13.27,15-26.37,23.35-39.19,1.78-2.89,4.2-5.87,6.24-8.56,6.82-8.88,14-17.6,21.15-26.36l11-13,5.34-6.14.73-.7.38.49.18.23.81,1L419,31.41c4.26,5.24,8.51,10.5,12.63,15.87,8.31,10.68,16.31,21.62,23.8,32.84,14.86,22.39,28.63,46,36,70.67.48,1.59,1.09,3.27,1.65,4.89,2.54,8.71,4.82,16,5.91,20.88,1.41,4.85,2.93,7.31,4.15,5.73,2.13-2.93,4.64-11.53,3.1-23.89s-5.84-28.2-14.19-44.78A336.46,336.46,0,0,0,472.88,80c-8.43-13-17.37-25.59-26.7-37.88q-7-9.18-14.34-18.15l-7.42-8.89L418.55,8.3,411.14,0l-6.2,6.95-5.85,6.7-6.24,7.42c-4.11,5-8.18,10-12.13,15.1-8,10.13-15.54,20.63-23,31.23-14.52,21.41-28,43.79-37.91,68.32l0,0c-5.89,15.27-10.69,31.62-10.57,49.11.5,17.07,4.91,34.28,13.85,48.95,17.1,29.84,50.37,49.42,84.68,50.21a101.5,101.5,0,0,0,78.86-32.86C505,231.07,511.38,207,509.65,187.79Z"/></svg>